<mxfile host="app.diagrams.net" modified="2021-04-02T03:49:53.058Z" agent="5.0 (Windows NT 10.0; Win64; x64) AppleWebKit/537.36 (KHTML, like Gecko) Chrome/89.0.4389.114 Safari/537.36" etag="dyv-DwTi9d1mPGg59Fi9" version="14.5.3" type="github">
  <diagram id="sF3ny3GOURNfsOvlpJEj" name="Page-1">
    <mxGraphModel dx="782" dy="437" grid="1" gridSize="10" guides="1" tooltips="1" connect="1" arrows="1" fold="1" page="1" pageScale="1" pageWidth="1600" pageHeight="1200" math="0" shadow="1">
      <root>
        <mxCell id="0" />
        <mxCell id="1" parent="0" />
        <mxCell id="0tZg9bUhFmO93kFKovh2-1" value="" style="rounded=0;whiteSpace=wrap;html=1;fillColor=#f5f5f5;strokeColor=#666666;fontColor=#333333;" vertex="1" parent="1">
          <mxGeometry x="420" y="150" width="810" height="780" as="geometry" />
        </mxCell>
        <mxCell id="0tZg9bUhFmO93kFKovh2-2" value="" style="rounded=0;whiteSpace=wrap;html=1;dashed=1;fillColor=none;" vertex="1" parent="1">
          <mxGeometry x="670" y="194" width="310" height="120" as="geometry" />
        </mxCell>
        <mxCell id="0tZg9bUhFmO93kFKovh2-4" value="&lt;span style=&quot;font-size: 18px&quot;&gt;数据从库&lt;/span&gt;" style="rounded=1;whiteSpace=wrap;html=1;" vertex="1" parent="1">
          <mxGeometry x="690" y="234" width="120" height="60" as="geometry" />
        </mxCell>
        <mxCell id="0tZg9bUhFmO93kFKovh2-5" value="&lt;span&gt;&lt;span style=&quot;font-weight: normal&quot;&gt;&lt;font color=&quot;#ffffff&quot; style=&quot;font-size: 18px&quot;&gt;阿里云EIP&lt;/font&gt;&lt;/span&gt;&lt;/span&gt;" style="rounded=1;whiteSpace=wrap;html=1;fillColor=#647687;strokeColor=#314354;fontColor=#ffffff;fontStyle=1" vertex="1" parent="1">
          <mxGeometry x="470" y="390" width="120" height="60" as="geometry" />
        </mxCell>
        <mxCell id="0tZg9bUhFmO93kFKovh2-6" value="&lt;span&gt;&lt;font color=&quot;#ffffff&quot; style=&quot;font-size: 18px&quot;&gt;阿里云EIP&lt;/font&gt;&lt;/span&gt;" style="rounded=1;whiteSpace=wrap;html=1;fillColor=#647687;strokeColor=#314354;fontColor=#ffffff;" vertex="1" parent="1">
          <mxGeometry x="470" y="680" width="120" height="60" as="geometry" />
        </mxCell>
        <mxCell id="0tZg9bUhFmO93kFKovh2-7" value="&lt;font style=&quot;font-size: 18px&quot;&gt;CDN&lt;/font&gt;" style="rounded=0;whiteSpace=wrap;html=1;strokeColor=#000000;fillColor=#FFFFFF;" vertex="1" parent="1">
          <mxGeometry x="220" y="230" width="120" height="60" as="geometry" />
        </mxCell>
        <mxCell id="0tZg9bUhFmO93kFKovh2-8" value="&lt;font style=&quot;font-size: 18px&quot;&gt;玩家&lt;/font&gt;" style="rounded=1;whiteSpace=wrap;html=1;strokeColor=#000000;fillColor=#FFFFFF;" vertex="1" parent="1">
          <mxGeometry x="220" y="380" width="120" height="60" as="geometry" />
        </mxCell>
        <mxCell id="0tZg9bUhFmO93kFKovh2-9" value="&lt;font style=&quot;font-size: 18px&quot;&gt;DDoS高防&lt;/font&gt;" style="rounded=0;whiteSpace=wrap;html=1;strokeColor=#000000;fillColor=#FFFFFF;" vertex="1" parent="1">
          <mxGeometry x="220" y="680" width="120" height="60" as="geometry" />
        </mxCell>
        <mxCell id="0tZg9bUhFmO93kFKovh2-10" value="&lt;span&gt;&lt;span style=&quot;font-weight: normal&quot;&gt;&lt;font color=&quot;#ffffff&quot; style=&quot;font-size: 18px&quot;&gt;源站服务器&lt;/font&gt;&lt;/span&gt;&lt;/span&gt;" style="rounded=1;whiteSpace=wrap;html=1;fillColor=#647687;strokeColor=#314354;fontColor=#ffffff;fontStyle=1" vertex="1" parent="1">
          <mxGeometry x="470" y="230" width="120" height="60" as="geometry" />
        </mxCell>
        <mxCell id="0tZg9bUhFmO93kFKovh2-11" value="&lt;font style=&quot;font-size: 18px&quot;&gt;对象存储&lt;/font&gt;" style="rounded=1;whiteSpace=wrap;html=1;" vertex="1" parent="1">
          <mxGeometry x="840" y="234" width="120" height="60" as="geometry" />
        </mxCell>
        <mxCell id="0tZg9bUhFmO93kFKovh2-12" value="" style="rounded=0;whiteSpace=wrap;html=1;dashed=1;fillColor=none;" vertex="1" parent="1">
          <mxGeometry x="670" y="320" width="310" height="120" as="geometry" />
        </mxCell>
        <mxCell id="0tZg9bUhFmO93kFKovh2-13" value="&lt;span style=&quot;font-size: 18px&quot;&gt;IDService&lt;/span&gt;" style="rounded=1;whiteSpace=wrap;html=1;" vertex="1" parent="1">
          <mxGeometry x="830" y="360" width="120" height="60" as="geometry" />
        </mxCell>
        <mxCell id="0tZg9bUhFmO93kFKovh2-14" value="&lt;span style=&quot;font-size: 18px&quot;&gt;ProxyServer&lt;/span&gt;" style="rounded=1;whiteSpace=wrap;html=1;" vertex="1" parent="1">
          <mxGeometry x="690" y="360" width="120" height="60" as="geometry" />
        </mxCell>
        <mxCell id="0tZg9bUhFmO93kFKovh2-21" value="" style="rounded=0;whiteSpace=wrap;html=1;dashed=1;fillColor=none;" vertex="1" parent="1">
          <mxGeometry x="670" y="450" width="310" height="120" as="geometry" />
        </mxCell>
        <mxCell id="0tZg9bUhFmO93kFKovh2-22" value="&lt;span style=&quot;font-size: 18px&quot;&gt;活动&lt;/span&gt;" style="rounded=1;whiteSpace=wrap;html=1;" vertex="1" parent="1">
          <mxGeometry x="830" y="490" width="120" height="60" as="geometry" />
        </mxCell>
        <mxCell id="0tZg9bUhFmO93kFKovh2-23" value="&lt;span style=&quot;font-size: 18px&quot;&gt;认证计费&lt;/span&gt;" style="rounded=1;whiteSpace=wrap;html=1;" vertex="1" parent="1">
          <mxGeometry x="690" y="490" width="120" height="60" as="geometry" />
        </mxCell>
        <mxCell id="0tZg9bUhFmO93kFKovh2-24" value="" style="rounded=0;whiteSpace=wrap;html=1;dashed=1;fillColor=none;" vertex="1" parent="1">
          <mxGeometry x="670" y="790" width="310" height="120" as="geometry" />
        </mxCell>
        <mxCell id="0tZg9bUhFmO93kFKovh2-25" value="" style="rounded=0;whiteSpace=wrap;html=1;strokeColor=#000000;fillColor=#FFFFFF;" vertex="1" parent="1">
          <mxGeometry x="790" y="840" width="120" height="60" as="geometry" />
        </mxCell>
        <mxCell id="0tZg9bUhFmO93kFKovh2-27" value="" style="rounded=0;whiteSpace=wrap;html=1;strokeColor=#000000;fillColor=#FFFFFF;" vertex="1" parent="1">
          <mxGeometry x="780" y="830" width="120" height="60" as="geometry" />
        </mxCell>
        <mxCell id="0tZg9bUhFmO93kFKovh2-28" value="&lt;font style=&quot;font-size: 18px&quot;&gt;架构同源A-1&lt;/font&gt;" style="rounded=0;whiteSpace=wrap;html=1;strokeColor=#000000;fillColor=#FFFFFF;" vertex="1" parent="1">
          <mxGeometry x="770" y="820" width="120" height="60" as="geometry" />
        </mxCell>
        <mxCell id="0tZg9bUhFmO93kFKovh2-31" value="" style="rounded=0;whiteSpace=wrap;html=1;dashed=1;fillColor=none;" vertex="1" parent="1">
          <mxGeometry x="670" y="580" width="310" height="200" as="geometry" />
        </mxCell>
        <mxCell id="0tZg9bUhFmO93kFKovh2-40" value="&lt;span style=&quot;font-size: 18px&quot;&gt;Gate GS FS&lt;/span&gt;&lt;br style=&quot;font-size: 18px&quot;&gt;&lt;span style=&quot;font-size: 18px&quot;&gt;[Game2]&lt;/span&gt;" style="rounded=1;whiteSpace=wrap;html=1;" vertex="1" parent="1">
          <mxGeometry x="840" y="620" width="120" height="60" as="geometry" />
        </mxCell>
        <mxCell id="0tZg9bUhFmO93kFKovh2-41" value="&lt;span style=&quot;font-size: 18px&quot;&gt;Gate GS FS&lt;br&gt;[Game1]&lt;br&gt;&lt;/span&gt;" style="rounded=1;whiteSpace=wrap;html=1;" vertex="1" parent="1">
          <mxGeometry x="690" y="620" width="120" height="60" as="geometry" />
        </mxCell>
        <mxCell id="0tZg9bUhFmO93kFKovh2-42" value="&lt;span style=&quot;font-size: 18px&quot;&gt;MS DS DF&lt;br&gt;[Game3]&lt;br&gt;&lt;/span&gt;" style="rounded=1;whiteSpace=wrap;html=1;" vertex="1" parent="1">
          <mxGeometry x="765" y="700" width="120" height="60" as="geometry" />
        </mxCell>
        <mxCell id="0tZg9bUhFmO93kFKovh2-43" value="备份策略" style="text;html=1;strokeColor=none;fillColor=none;align=center;verticalAlign=middle;whiteSpace=wrap;rounded=0;" vertex="1" parent="1">
          <mxGeometry x="690" y="205" width="60" height="20" as="geometry" />
        </mxCell>
        <mxCell id="0tZg9bUhFmO93kFKovh2-44" value="平台服" style="text;html=1;strokeColor=none;fillColor=none;align=center;verticalAlign=middle;whiteSpace=wrap;rounded=0;" vertex="1" parent="1">
          <mxGeometry x="690" y="330" width="45" height="20" as="geometry" />
        </mxCell>
        <mxCell id="0tZg9bUhFmO93kFKovh2-45" value="公共服SDK" style="text;html=1;strokeColor=none;fillColor=none;align=center;verticalAlign=middle;whiteSpace=wrap;rounded=0;" vertex="1" parent="1">
          <mxGeometry x="690" y="462" width="70" height="20" as="geometry" />
        </mxCell>
        <mxCell id="0tZg9bUhFmO93kFKovh2-47" value="区服A-1" style="text;html=1;strokeColor=none;fillColor=none;align=center;verticalAlign=middle;whiteSpace=wrap;rounded=0;" vertex="1" parent="1">
          <mxGeometry x="690" y="590" width="50" height="20" as="geometry" />
        </mxCell>
        <mxCell id="0tZg9bUhFmO93kFKovh2-48" value="区服A-N" style="text;html=1;strokeColor=none;fillColor=none;align=center;verticalAlign=middle;whiteSpace=wrap;rounded=0;" vertex="1" parent="1">
          <mxGeometry x="690" y="800" width="50" height="20" as="geometry" />
        </mxCell>
        <mxCell id="0tZg9bUhFmO93kFKovh2-49" value="&lt;b&gt;&lt;font style=&quot;font-size: 16px&quot;&gt;服务区域A&lt;/font&gt;&lt;/b&gt;" style="text;html=1;strokeColor=none;fillColor=none;align=center;verticalAlign=middle;whiteSpace=wrap;rounded=0;" vertex="1" parent="1">
          <mxGeometry x="430" y="160" width="80" height="20" as="geometry" />
        </mxCell>
      </root>
    </mxGraphModel>
  </diagram>
</mxfile>
